<?xml version="1.0" encoding="UTF-8"?><svg id="Layer_2" xmlns="http://www.w3.org/2000/svg" width="5.07" height="6" viewBox="0 0 5.07 6"><g id="Layer_1-2"><path d="m2.46.23c.07.28.06.3,0,.59-.22,1.12-1.02,2.52-1.58,3.53-.34.61-.26.83.48.86.77.03,1.85-.26,2.54-.6.09-.04.14-.08.2-.12-.44-.21-1.25-.26-1.69-.31-.3-.04-.62-.19-.54-.54.08-.35.76-.76,1.04-.98.48-.37,1.39-1.07.97-1.76-.24-.39-.66-.57-.97-.88.29.02.4.07.66.2,1.35.7.9,1.76.03,2.63-.08.08-.44.4-.72.65.58.03,1.27.09,1.69.31.4.21.62.58.41,1.01-.5.99-3.12,1.41-4.11,1.11-1.05-.31-1.06-1.09-.54-1.9.62-.96,1.25-1.87,1.75-2.91.14-.3.24-.59.37-.87h0Zm1.78,4.33s0,0,.01,0c0,0,0,0-.01,0h0Zm-1.71-.75s0,0,0,0c0,0,0,0,0,0h0Z" fill="#fff" fill-rule="evenodd"/></g></svg>