<?xml version="1.0" encoding="utf-8"?>
<!-- Generator: Adobe Illustrator 27.6.1, SVG Export Plug-In . SVG Version: 6.00 Build 0)  -->
<svg version="1.1" id="layer1" xmlns="http://www.w3.org/2000/svg" xmlns:xlink="http://www.w3.org/1999/xlink" x="0px" y="0px"
	 viewBox="0 0 315 106.4" style="enable-background:new 0 0 315 106.4;" xml:space="preserve">
<style type="text/css">
	.st0{fill:#F46083;}
	.st1{fill:#00484C;}
	.st2{fill:#005C7C;}
	.st3{fill:#E0466B;}
	.st4{fill:#F47A9D;}
	.st5{fill:#E0B7A6;}
	.st6{fill:#F4DBCE;}
	.st7{fill:#013E4C;}
	.st8{fill:#CC2353;}
	.st9{fill:#FFFFFF;}
	.st10{fill:#ED4F7D;}
	.st11{fill:#00373A;}
	.st12{fill:#E55772;}
	.st13{fill:#B8C7C9;}
	.st14{fill:#9EB4B5;}
	.st15{fill:#00323A;}
</style>
<g>
	<path class="st0" d="M279.9,75.6c2.4-2.2,6.1-3.9,9.3-4c0.6,0,1.1,0.4,1.3,0.9c0.5,0.1,0.9,0.5,0.9,1.1c0,2.1-0.4,4.2-0.7,6.3
		c-0.2,1.2-0.2,2.6-1.2,3.5c-2.2,1.8-6.7,0.4-8.7-1C278.5,80.8,277.7,77.6,279.9,75.6z"/>
	<path class="st0" d="M12.7,79.3c0.1-1.8,0.2-3.5,0.4-5.3c0-0.3,0-0.6,0.1-0.8c0,0,0-0.1,0-0.1c0.1-0.8,0.7-1,1.3-0.9
		c0.2,0,0.4,0,0.5,0.1c3,0.9,6.4,2.2,7.6,5.4c1,2.7-0.2,5.5-2.7,6.9c-1.7,1-6.1,2.5-7.3,0.2C12.1,83.3,12.7,80.9,12.7,79.3z"/>
	<path class="st1" d="M230.8,69.4c-3.7-1.6-7.1-3.7-10.2-6.4c-8.1-7.1-11.6-18.3-8.7-28.8c2.8-10.2,11.7-17.4,21.8-19.7
		c1.5-0.3,0.8-2.4-0.6-2.2c-9.3,1.5-17.7,7.9-21.8,16.3c-4.2,8.6-4,19,0.3,27.5c3.7,7.2,10.1,12.1,17.2,15.5
		C229.4,70.8,230,69.9,230.8,69.4z"/>
	<path class="st2" d="M239.7,47.2c-1-8-4.6-15.2-10.7-20.6c-6.1-5.4-13.5-8.9-21.1-11.7c-15.7-5.8-32.7-7.6-49.3-7.8
		c-9.4-0.1-18.9,0.3-28.3,1.7c-1.6-2.9-4.8-3.9-8.1-3.4c-14.5,2.1-28.3,8.2-39.9,17.1c-5.9,4.5-11,9.7-15.5,15.6
		c-4.9,6.3-9.1,14.3-8.7,22.6c0.2,3.6,1.2,6.9,2.9,9.9c0.6,7.7,5.3,14.6,12.4,17.8c7.4,3.3,15.6,4.4,23.5,5.9
		c8.9,1.7,17.9,3.2,26.9,4.3c17.3,2.3,34.9,3.2,52.3,1.4c15.5-1.6,32.2-4.6,45-14.1C233,77,241.7,62.6,239.7,47.2z"/>
	<path class="st3" d="M185.3,49.5c-1.2-17.1-7.8-36.1-24.6-43.6c-7.8-3.5-17-4.4-25-1.3c-8.4,3.3-13.8,10.1-17.2,18.2
		c-3.8,9.2-5.5,19.4-5.2,29.4c0.1,3.5,0.4,7.6,1.1,11.7c0,1.9,0.2,3.8,0.4,5.7c1.1,10,4.4,19.8,11.6,27.1
		c6.9,7.2,16.6,10.7,26.5,9.3c6.3,0,12.5-2.4,17.5-6.4C184.9,88.1,186.5,66.8,185.3,49.5z M151.1,91.7c-18.2,1.7-22.7-21.5-22.7-35
		c0-3.6,1.2-16,1.6-18.5c1.4-9.5,6.7-20.2,17.7-20.4c18.2-0.2,24.8,21.8,25.2,36.4C173.3,68.6,168.5,90.1,151.1,91.7z"/>
	<path class="st4" d="M181.1,46.8c-1.2-17.1-7.8-36.1-24.6-43.6c-7.8-3.5-17-4.4-25-1.3C123,5.2,117.6,12,114.2,20.1
		c-3.8,9.2-5.5,19.4-5.2,29.4c0.1,3.5,0.4,7.6,1.1,11.7c0,1.9,0.2,3.8,0.4,5.7c1.1,10,4.4,19.8,11.6,27.1
		c6.9,7.2,16.6,10.7,26.5,9.3c6.3,0,12.5-2.4,17.5-6.4C180.7,85.4,182.3,64.1,181.1,46.8z M146.9,89c-18.2,1.7-22.7-21.5-22.7-35
		c0-3.6,1.2-16,1.6-18.5c1.4-9.5,6.7-20.2,17.7-20.4c18.2-0.2,24.8,21.8,25.2,36.4C169.1,65.9,164.3,87.4,146.9,89z"/>
	<path class="st3" d="M105.4,51c-0.3-0.5-0.6-1-1.1-1.4c-2.1-1.8-4.3-2.4-6.7-2.5c-0.2-12.6-1-25.2-3-37.7c-0.6-4-5.4-6.4-9-5.9
		c-3.8,0.6-7.3,3.9-7.1,8c0.6,12.2,1.2,24.3,1.4,36.5c-2.5,0.1-4.9,0.2-7.4,0.3c-1.5,0-3-0.1-4.6-0.1c-0.1-0.3-0.1-0.6-0.2-0.9
		c0-0.4-0.1-0.7-0.1-1.1c0-0.2,0-0.5,0-0.7c-0.2-2.9-0.4-5.9-0.6-8.8c-0.5-7.6-0.7-15.2-0.6-22.8c0.1-10.9-16.8-10.9-17,0
		c-0.3,13.7,0,27.8,2.2,41.4c0.6,4,2.7,7.2,6.3,9.1C61.2,66,65.1,66,68.8,66c4.6,0,9.3-0.2,13.9-0.5c-0.1,3.4-0.2,6.7-0.4,10.1
		c-0.2,3.7-0.3,7.4-0.5,11.1c-0.2,4.2-0.8,8.3-0.1,12.4c0.5,3.1,4.1,5.3,7,5.3c3.3,0,6-2.3,7-5.3c1.4-4.4,1.1-9.8,1.3-14.4
		c0.2-4.6,0.4-9.2,0.5-13.8c0-2.8,0.1-5.5,0.1-8.3c2.1-0.8,4.1-1.8,6.3-2.7C107.8,58.4,107.6,53.8,105.4,51z"/>
	<path class="st3" d="M248.2,50.8c-0.3-0.5-0.6-1-1.1-1.4c-2.1-1.8-4.3-2.4-6.7-2.5c-0.2-12.6-1-25.2-3-37.7c-0.6-4-5.4-6.4-9-5.9
		c-3.8,0.6-7.3,3.9-7.1,8c0.6,12.2,1.2,24.3,1.4,36.5c-2.5,0.1-4.9,0.2-7.4,0.3c-1.5,0-3-0.1-4.6-0.1c-0.1-0.3-0.1-0.6-0.1-0.9
		c0-0.4-0.1-0.7-0.1-1.1c0-0.2,0-0.5,0-0.7c-0.2-2.9-0.4-5.9-0.6-8.8c-0.5-7.6-0.7-15.2-0.6-22.8c0.1-10.9-16.8-10.9-17,0
		c-0.3,13.7,0,27.8,2.2,41.4c0.6,4,2.7,7.2,6.3,9.1c3.3,1.7,7.2,1.7,10.9,1.7c4.6,0,9.3-0.2,13.9-0.5c-0.1,3.4-0.2,6.7-0.4,10.1
		c-0.2,3.7-0.3,7.4-0.5,11.1c-0.2,4.2-0.8,8.3-0.1,12.4c0.5,3.1,4.1,5.3,7,5.3c3.3,0,6-2.3,7-5.3c1.4-4.4,1.1-9.8,1.3-14.4
		c0.2-4.6,0.4-9.2,0.5-13.8c0-2.8,0.1-5.5,0.1-8.3c2.1-0.8,4.1-1.8,6.3-2.7C250.5,58.2,250.4,53.6,248.2,50.8z"/>
	<path class="st4" d="M100.6,48.7c-0.3-0.5-0.6-1-1.1-1.4c-2.1-1.8-4.3-2.4-6.7-2.5c-0.2-12.6-1-25.2-3-37.7c-0.6-4-5.4-6.4-9-5.9
		c-3.8,0.6-7.3,3.9-7.1,8c0.6,12.2,1.2,24.3,1.4,36.5c-2.5,0.1-4.9,0.2-7.4,0.3c-1.5,0-3-0.1-4.6-0.1c-0.1-0.3-0.1-0.6-0.2-0.9
		c0-0.4-0.1-0.7-0.1-1.1c0-0.2,0-0.5,0-0.7c-0.2-2.9-0.4-5.9-0.6-8.8c-0.5-7.6-0.7-15.2-0.6-22.8c0.1-10.9-16.8-10.9-17,0
		c-0.3,13.7,0,27.8,2.2,41.4c0.6,4,2.7,7.2,6.3,9.1c3.3,1.7,7.2,1.7,10.9,1.7c4.6,0,9.3-0.2,13.9-0.5c-0.1,3.4-0.2,6.7-0.4,10.1
		c-0.2,3.7-0.3,7.4-0.5,11.1c-0.2,4.2-0.8,8.3-0.1,12.4c0.5,3.1,4.1,5.3,7,5.3c3.3,0,6-2.3,7-5.3c1.4-4.4,1.1-9.8,1.3-14.4
		c0.2-4.6,0.4-9.2,0.5-13.8c0-2.8,0.1-5.5,0.1-8.3c2.1-0.8,4.1-1.8,6.3-2.7C102.9,56.1,102.8,51.5,100.6,48.7z"/>
	<path class="st4" d="M242.9,48.7c-0.3-0.5-0.6-1-1.1-1.4c-2.1-1.8-4.3-2.4-6.7-2.5c-0.2-12.6-1-25.2-3-37.7c-0.6-4-5.4-6.4-9-5.9
		c-3.8,0.6-7.3,3.9-7.1,8c0.6,12.2,1.2,24.3,1.4,36.5c-2.5,0.1-4.9,0.2-7.4,0.3c-1.5,0-3-0.1-4.6-0.1c-0.1-0.3-0.1-0.6-0.1-0.9
		c0-0.4-0.1-0.7-0.1-1.1c0-0.2,0-0.5,0-0.7c-0.2-2.9-0.4-5.9-0.6-8.8c-0.5-7.6-0.7-15.2-0.6-22.8c0.1-10.9-16.8-10.9-17,0
		c-0.3,13.7,0,27.8,2.2,41.4c0.6,4,2.7,7.2,6.3,9.1c3.3,1.7,7.2,1.7,10.9,1.7c4.6,0,9.3-0.2,13.9-0.5c-0.1,3.4-0.2,6.7-0.4,10.1
		c-0.2,3.7-0.3,7.4-0.5,11.1c-0.2,4.2-0.8,8.3-0.1,12.4c0.5,3.1,4.1,5.3,7,5.3c3.3,0,6-2.3,7-5.3c1.4-4.4,1.1-9.8,1.3-14.4
		c0.2-4.6,0.4-9.2,0.5-13.8c0-2.8,0.1-5.5,0.1-8.3c2.1-0.8,4.1-1.8,6.3-2.7C245.3,56.1,245.1,51.5,242.9,48.7z"/>
	<g>
		<path class="st5" d="M119.2,57.1c0.6,7.3,2.1,14.7,4.4,21.6c1.8,5.5,4.6,10.9,9.4,14.4c5,3.7,13.3,5.4,19.4,3.6
			c13.9-4.2,18.9-17.3,19.5-28.9c0.2-3.9,1.2-22.6,1-26.3C172.6,35.2,168.1,9,144.6,9C117.1,9,118.4,47.6,119.2,57.1z"/>
		<path class="st6" d="M119.2,56.8c0.6,7.3,2,14.7,4.2,21.6c1.8,5.5,4.4,10.9,9,14.4c4.9,3.7,12.9,5.4,18.8,3.6
			c13.5-4.2,18.3-17.3,18.9-28.9c0.2-3.9,1.2-22.6,1-26.3c-0.3-6.1-4.6-32.3-27.4-32.3C117.2,8.8,118.5,47.3,119.2,56.8z"/>
		<path class="st7" d="M175.1,46.8c0.9-11.3-4.5-25.6-11.3-33.8c-5.3-6.5-14.6-9-22.9-7.3c-7.5,1.5-14.3,5.4-18.4,11.9
			c-5.4,8.6-8.1,20.8-7.1,30.4c0.3,2.8,2.9,3,3.3,5.8c0.1,0.9,0.5,2.9,0.5,2.1c0.7-10.3,2.7-22.8,9.8-30.8c3.6-4,7.9-5.7,12.8-7.7
			c5.7-2.2,8-4.8,9.2-4.4c1.9,0.6,3.2,5.3,9.8,10.8c5.6,4.7,10.6,18.4,12.4,25.6C173.2,50.2,175,47.6,175.1,46.8z"/>
		<path class="st7" d="M134.9,43.2c-0.6-0.8-1.4-1.5-2-2.2c0.4-0.6,0.8-1.3,1.2-1.9c0.7-1.2-1.1-2.6-2-1.5c-0.3,0.4-0.6,0.8-0.9,1.3
			c-0.2-0.2-1.3-1.3-1.5-1.5c-0.8-0.6-1.9,0.4-1.7,1.3c0.1,0.6,1.4,2,1.8,2.6c-0.5,1-1,2-1.4,3c-0.5,1.2,1.3,1.8,2,0.8
			c0.4-0.6,0.7-1.1,1.1-1.7c0.5,0.6,1.1,1.2,1.7,1.8C134.4,46,135.9,44.4,134.9,43.2z"/>
		<path class="st7" d="M161.9,43.1c-0.5-0.8-1.2-1.6-1.9-2.3c0.6-0.9,1.2-1.8,1.7-2.8c0.6-1.1-0.9-2.3-1.8-1.4
			c-0.6,0.6-1.2,1.4-1.8,2.1c-0.5-0.5-0.9-1-1.5-1.4c-0.9-0.8-2.5,0.2-1.8,1.4c0.5,0.8,1.1,1.6,1.7,2.3c-0.6,1.1-1.2,2.2-1.6,3.4
			c-0.5,1.4,1.5,2.1,2.3,1c0.4-0.7,0.8-1.4,1.2-2.1c0.4,0.5,0.9,1,1.4,1.4C160.9,45.5,162.7,44.4,161.9,43.1z"/>
		<path class="st8" d="M151.2,74.1c-0.3,0.6-0.7,1.1-1.2,1.5c0.7,1.4-1.8,1.1-4.1,1.1c-1.6,0-3.1,0.2-3.7-0.2
			c-0.5,0.3-1.1,0.2-1.5-0.2c0.1,0.6,0.4,1.1,0.9,1.6c0.7,0.7,2.6,0.2,4.5,0.2c1.9,0,3.7,0.4,4.3,0
			C151.9,77.1,152.5,75.6,151.2,74.1z"/>
		<path class="st9" d="M149.8,73.7c-2.3-1.7-5.4-1.7-7.9-0.2c-0.3,0.2-0.4,0.4-0.5,0.6c-1,0.5-1.1,2.2,0.2,2.4
			c2.6,0.4,5.3,0.2,7.9-0.3C150.7,75.9,150.7,74.3,149.8,73.7z"/>
		<path class="st3" d="M150.4,72.9c-1.9-1.7-5.5-2-7.9-0.9c-2.3,1.1-2.9,3.4-1.3,5.2c0.7,0.7,2.6,0.2,4.5,0.2c1.9,0,3.7,0.4,4.3,0
			C151.6,76.3,152.2,74.6,150.4,72.9z M149.6,74.8c0.8,1.5-1.8,1.2-4.1,1.2c-2.3,0-4.6,0.5-3.7-1.4c0.7-1.5,3.8-1.8,5.6-1.4
			C148.4,73.4,149.3,74.2,149.6,74.8z"/>
		<g>
			<path class="st10" d="M152.8,58.2c-0.1-0.5-0.7,1.2-0.7,1.7c0,0.7,0.2,1.4,0.2,2.1c0,0.6-0.1,0.9-0.4,1.4c-0.3,0-0.6,0-0.8,0.1
				c-0.2,0-0.2,0.3-0.1,0.4c0.8,0.8,2.3,0.3,2.8-0.6C154.3,62,153.2,59.6,152.8,58.2z"/>
			<path class="st10" d="M140.5,62.9c-0.4-0.2-1.2-0.5-1.3-1.1c-0.1-0.6,0.5-0.9,0.7-1.3c0.2-0.3-0.1-0.7-0.5-0.6
				c-0.2,0-0.3,0.1-0.5,0.2c0.1-0.3,0.3-0.7,0.4-1.1c0.1-0.3-0.6-1.2-0.6-0.9c-0.4,1.2-1,3-0.8,4c0.2,1.2,1.2,1.6,2.3,1.6
				C140.8,63.9,141,63.2,140.5,62.9z"/>
			<path class="st11" d="M152.9,62.4c-0.4-1.1-2-1-2.9-0.8c-1.6,0.4-2.8,1.5-3.9,2.5c-0.1,0.1-0.1,0.2-0.1,0.3
				c-0.1,0.1,0,0.4,0.2,0.4c0,0,0,0,0,0c0.2,0.1,0.3,0.1,0.5,0c0.2-0.1,1.5-0.3,2.2-0.4c0.9-0.1,1.8-0.1,2.7-0.2
				C152.4,64,153.3,63.3,152.9,62.4z"/>
			<path class="st11" d="M145.3,64.5c-0.9-1.2-2.4-2-3.7-2.7c-0.8-0.4-2.2-1.2-2.8-0.1c-0.5,0.9,0.2,1.8,1.1,2.1
				c0.8,0.3,1.6,0.2,2.4,0.4c0.8,0.2,1.8,0.4,2.5,0.6C145.1,65,145.5,64.8,145.3,64.5z"/>
			<path class="st10" d="M153.5,60.7c-1.4-5.9-3.6-11.6-6.7-16.8c-0.4-0.7-1.5-0.7-1.9-0.2c-3.4,4.7-5.1,10.5-6.6,16.1
				c-0.1,0.5-0.2,1.1,0.1,1.4c0.2,0.2,0.5,0.3,0.7,0.3c2.1,0.9,4.9,3.9,6.7,3.9c2,0,4.2-3.6,6.7-3.6
				C153.2,61.9,153.6,61.3,153.5,60.7z"/>
		</g>
		<path class="st8" d="M130.8,52.8c-1-0.4-2.2-0.4-3.4-0.1c-1.7,0.2-3.4,1-3.2,2.1c0,0.1-0.1,0.3-0.1,0.4c0.1,0.7,0.8,1,1.4,1.1
			c1.5,0.8,4,0.3,5.3-0.3C132.4,55.3,132.4,53.5,130.8,52.8z"/>
		<path class="st8" d="M163.7,52.9c-1-0.1-3-0.4-3.1,1.1c-0.2,1.5,2.1,2.1,3.2,2.2c0.1,0,0.2,0,0.3,0c0.1,0,0.2,0,0.3,0
			c1.1,0.1,3.3-0.1,3.2-1.6C167.4,53.2,164.7,53,163.7,52.9z"/>
		<path class="st12" d="M130.5,52.2c-1-0.4-2.2-0.4-3.4-0.1c-1.7,0.2-3.4,1-3.2,2.1c0,0.1-0.1,0.3-0.1,0.4c0.1,0.7,0.8,1,1.4,1.1
			c1.5,0.8,4,0.3,5.3-0.3C132.1,54.6,132.1,52.8,130.5,52.2z"/>
		<path class="st12" d="M163.3,52.3c-1-0.1-3-0.4-3.1,1.1c-0.2,1.5,2.1,2.1,3.2,2.2c0.1,0,0.2,0,0.3,0c0.1,0,0.2,0,0.3,0
			c1.1,0.1,3.3-0.1,3.2-1.6C167,52.6,164.3,52.4,163.3,52.3z"/>
		<path class="st13" d="M187.9,75.8c0.5-4.5-4.4-6.9-8.2-7.4c-0.2,0-0.5-0.1-0.7-0.1c-4.9-1.1-10.6-0.4-15.1,1.9
			c-0.5,0.3-1.1,0.6-1.7,1c-2,1.2-5.2,4.6-3.9,7.7c0.8,2,3.5,2.7,5.6,3.2c4.1,1.1,8.4,0.9,12.5,0.3c2.1-0.3,4.2-0.7,6.3-1.1
			c1.4-0.3,2.9-0.6,4-1.6C187.7,78.6,188.1,77.1,187.9,75.8z"/>
		<path class="st9" d="M186.1,74.6c0.5-4.5-4.4-6.9-8.2-7.4c-0.2,0-0.5-0.1-0.7-0.1c-4.9-1.1-10.6-0.4-15.1,1.9
			c-0.5,0.3-1.1,0.6-1.7,1c-2,1.2-5.2,4.6-3.9,7.7c0.8,2,3.5,2.7,5.6,3.2c4.1,1.1,8.4,0.9,12.5,0.3c2.1-0.3,4.2-0.7,6.3-1.1
			c1.4-0.3,2.9-0.6,4-1.6C186,77.4,186.4,75.9,186.1,74.6z"/>
		<g>
			<path class="st7" d="M169.8,72.5c-0.2-0.7-0.6-1.4-1.3-1.7c-0.4-0.1-0.7-0.2-1.1-0.1c-0.1-0.1-0.2-0.1-0.4,0
				c-1.3,1-1.8,2.8-1.4,4.4c0.4,1.3,1.8,3.2,3.3,2.2C170.3,76.3,170.3,73.9,169.8,72.5z M168.1,76.5c-1,0-1.5-1.8-1.6-2.5
				c-0.1-0.8,0.1-1.4,0.5-2c0.1,0,0.1,0,0.2-0.1c1.1-0.8,1.7,0.6,1.8,1.5C169.1,74.1,169.1,76.5,168.1,76.5z"/>
			<path class="st7" d="M174.6,72.6c-0.3-1.3-1.5-2.8-2.9-2c0,0,0,0-0.1,0.1c-0.5,0.2-0.7,0.8-0.8,1.3c-0.1,0.9-0.3,2-0.3,3
				c0,1.6,1.3,3.1,2.8,2.1C174.9,76.2,174.9,74.1,174.6,72.6z M173.2,75.9c-0.5,0.5-1.1,0.6-1.5-0.1c-0.2-0.5-0.2-1-0.1-1.5
				c0-0.6-0.1-2,0.4-2.7c0,0,0.1,0,0.1,0C174,70.9,174.1,74.9,173.2,75.9z"/>
			<path class="st7" d="M178.1,70.5c-1-0.4-2,0.2-2.1,1.3c-0.1,0.7,0.1,1.5,0.1,2.2c0,0.1,0,0.2,0,0.4c0,0.1,0,0.2,0,0.3
				c0,0.6,0.1,1.1,0.2,1.7c0.1,0.5,0.8,0.3,0.8-0.1c0-0.5,0-0.9,0-1.4c0.9-0.1,1.7-0.7,2-1.6C179.5,72.3,179.2,70.9,178.1,70.5z
				 M178.3,72.6c-0.1,0.7-0.6,1.1-1.3,1.2c-0.1-0.6-0.3-1.5-0.1-2c0.2-0.5,0.6-0.6,1-0.2C178.3,71.8,178.4,72.2,178.3,72.6z"/>
			<path class="st7" d="M182.8,75c-0.1-0.7-0.7-1.1-1.3-1.5c-0.4-0.2-0.9-0.5-0.9-1.1c0-0.6,0.5-0.9,1-0.8c0.4,0,0.7-0.4,0.3-0.6
				c-1.5-0.8-2.6,1-2,2.3c0.2,0.3,0.4,0.6,0.7,0.8c0.3,0.2,0.8,0.4,1.1,0.7c0.3,0.4,0.1,1-0.4,1.2c-0.5,0.1-1-0.2-1.5-0.2
				c-0.4,0-0.5,0.6-0.2,0.8C180.8,77.4,183,76.8,182.8,75z"/>
			<path class="st7" d="M161.4,76.2c-0.2-0.2-0.5-0.2-0.7-0.1c-0.2,0.1-0.4,0.4-0.3,0.7c0,0.1,0.1,0.2,0.2,0.3c0,0,0,0,0,0
				c0.1,0.1,0.2,0.1,0.3,0.1c0.3,0,0.5-0.2,0.5-0.4C161.6,76.6,161.6,76.4,161.4,76.2z"/>
			<path class="st7" d="M163.4,76.6c-0.1-0.3-0.4-0.5-0.7-0.4c-0.3,0-0.5,0.3-0.5,0.6c0,0.2,0.1,0.3,0.2,0.4c0,0,0.1,0.1,0.1,0.1
				c0.1,0.1,0.2,0.1,0.3,0.1c0.1,0,0.2,0,0.3-0.1C163.4,77.1,163.4,76.9,163.4,76.6z"/>
			<path class="st7" d="M165.1,76.3c-0.1-0.2-0.2-0.2-0.4-0.2c-0.1,0-0.1,0-0.2,0c0,0-0.1,0-0.1,0c-0.2,0-0.4,0.2-0.5,0.4
				c0,0.1,0,0.3,0,0.4c0.1,0.1,0.2,0.2,0.3,0.2c0.3,0.1,0.7-0.1,0.9-0.3C165.2,76.6,165.2,76.4,165.1,76.3z"/>
		</g>
	</g>
	<g>
		<path class="st14" d="M103.8,18.4c-0.2-0.1-0.3-0.1-0.5-0.2c-0.4-0.1-0.9,0-1.2,0.3c-0.2,0.2-0.4,0.5-0.4,0.9
			c0,0.3,0.1,0.6,0.4,0.9c0.3,0.3,0.7,0.4,1.2,0.3c0.2,0,0.3-0.1,0.5-0.2C104.5,20.1,104.5,18.8,103.8,18.4z"/>
		<path class="st14" d="M101.3,78.4c-1.5,0-1.5,2.4,0,2.4C102.8,80.7,102.8,78.4,101.3,78.4z"/>
		<path class="st14" d="M213,70.5c-0.1,0-0.2,0-0.2,0c-0.6,0-1.2,0.5-1.1,1.1c0,0.7,0.5,1.1,1.1,1.1c0.1,0,0.2,0,0.2,0
			c0.6,0,1.2-0.6,1.2-1.2C214.2,71.1,213.7,70.5,213,70.5z"/>
		<path class="st14" d="M195.3,83c-0.4-0.3-0.8-0.4-1.2-0.2c-0.4,0.1-0.8,0.4-0.9,0.7c-0.2,0.4-0.1,1,0.3,1.3
			c0.3,0.3,0.8,0.4,1.2,0.3c0.4-0.1,0.8-0.5,0.9-1C195.7,83.7,195.6,83.3,195.3,83z"/>
		<path class="st14" d="M213,26.6c-0.2,0-0.4,0-0.5,0.1c-0.4,0.1-0.8,0.6-0.8,1.1c0,0.5,0.3,0.9,0.8,1.1c0.2,0,0.3,0.1,0.5,0.1
			c0.6,0.1,1.2-0.6,1.1-1.1C214.1,27.2,213.7,26.6,213,26.6z"/>
		<path class="st14" d="M178.8,12.3c-1.5,0-1.5,2.3,0,2.3C180.3,14.6,180.3,12.3,178.8,12.3z"/>
		<path class="st14" d="M191.8,64.7c-1.5,0-1.5,2.3,0,2.3C193.3,67.1,193.3,64.7,191.8,64.7z"/>
		<path class="st14" d="M67.7,72.3c-0.4-0.8-1.6-0.8-2,0c-0.1,0.3-0.2,0.5-0.2,0.8c0,0.3,0.1,0.6,0.3,0.8c0.2,0.2,0.5,0.4,0.8,0.4
			c0.7,0,1.1-0.5,1.2-1.2C67.9,72.8,67.8,72.5,67.7,72.3z"/>
		<path class="st14" d="M71.3,38.3c-1.3,0-1.3,2.1,0,2.1C72.6,40.4,72.6,38.3,71.3,38.3z"/>
		<path class="st14" d="M104.8,37.8c-0.1,0-0.2,0-0.2,0c-0.6,0-1.1,0.5-1.1,1.1c0,0.6,0.5,1.1,1.1,1.1c0.1,0,0.2,0,0.2,0
			c0.6,0,1.1-0.5,1.1-1.1C105.9,38.3,105.4,37.7,104.8,37.8z"/>
	</g>
	<g>
		<path class="st9" d="M103.5,18c-0.2-0.1-0.3-0.1-0.5-0.2c-0.4-0.1-0.9,0-1.2,0.3c-0.2,0.2-0.4,0.5-0.4,0.9c0,0.3,0.1,0.6,0.4,0.9
			c0.3,0.3,0.7,0.4,1.2,0.3c0.2,0,0.3-0.1,0.5-0.2C104.3,19.7,104.3,18.3,103.5,18z"/>
		<path class="st9" d="M101.1,78c-1.5,0-1.5,2.4,0,2.4C102.6,80.3,102.6,78,101.1,78z"/>
		<path class="st9" d="M212.8,70.1c-0.1,0-0.2,0-0.2,0c-0.6,0-1.2,0.5-1.1,1.1c0,0.7,0.5,1.1,1.1,1.1c0.1,0,0.2,0,0.2,0
			c0.6,0,1.2-0.6,1.2-1.2C213.9,70.7,213.4,70.1,212.8,70.1z"/>
		<path class="st9" d="M195,82.5c-0.4-0.3-0.8-0.4-1.2-0.2c-0.4,0.1-0.8,0.4-0.9,0.7c-0.2,0.4-0.1,1,0.3,1.3
			c0.3,0.3,0.8,0.4,1.2,0.3c0.4-0.1,0.8-0.5,0.9-1C195.4,83.3,195.4,82.9,195,82.5z"/>
		<path class="st9" d="M212.8,26.2c-0.2,0-0.4,0-0.5,0.1c-0.4,0.1-0.8,0.6-0.8,1.1c0,0.5,0.3,0.9,0.8,1.1c0.2,0,0.3,0.1,0.5,0.1
			c0.6,0.1,1.2-0.6,1.1-1.1C213.9,26.8,213.4,26.2,212.8,26.2z"/>
		<path class="st9" d="M178.5,11.9c-1.5,0-1.5,2.3,0,2.3C180,14.1,180,11.9,178.5,11.9z"/>
		<path class="st9" d="M191.5,64.3c-1.5,0-1.5,2.3,0,2.3C193,66.7,193,64.3,191.5,64.3z"/>
		<path class="st9" d="M67.4,71.8c-0.4-0.8-1.6-0.8-2,0c-0.1,0.3-0.2,0.5-0.2,0.8c0,0.3,0.1,0.6,0.3,0.8c0.2,0.2,0.5,0.4,0.8,0.4
			c0.7,0,1.1-0.5,1.2-1.2C67.6,72.4,67.5,72.1,67.4,71.8z"/>
		<path class="st9" d="M71,37.9c-1.3,0-1.3,2.1,0,2.1C72.3,39.9,72.3,37.9,71,37.9z"/>
		<path class="st9" d="M104.5,37.3c-0.1,0-0.2,0-0.2,0c-0.6,0-1.1,0.5-1.1,1.1c0,0.6,0.5,1.1,1.1,1.1c0.1,0,0.2,0,0.2,0
			c0.6,0,1.1-0.5,1.1-1.1C105.6,37.9,105.2,37.3,104.5,37.3z"/>
	</g>
	<path class="st15" d="M130.3,27.8c-0.6,0.3-1.1,1-1.5,1.5c-0.5,0.5-0.9,1-1.3,1.6c-0.7,1.2,0.7,2.7,2,2c0.6-0.4,1.1-0.8,1.6-1.3
		c0.5-0.5,1.1-0.9,1.4-1.5C133.2,28.6,131.8,27.1,130.3,27.8z"/>
	<path class="st15" d="M160.2,26.7c-0.6-0.5-1.3-0.7-2-1.1c-0.7-0.3-1.3-0.6-1.9-1c-1.9-1.1-3.4,1.7-1.7,2.9c0.9,0.6,2,1.2,3.1,1.5
		c0.2,0.1,0.3,0.1,0.5,0.2c0.3,0.1,0.6,0.1,1,0.1C160.4,29.3,161.3,27.7,160.2,26.7z"/>
	<path class="st8" d="M120.1,62.9c-0.6-2.4-1-4.8-0.9-7.2c0.1-2.2,1-4.7-0.3-6.6c-1.1-1.5-3.1-1.8-4.3-0.3c-1.6,1.8-1,5-0.3,7
		c1,2.9,2.9,5.4,4.8,7.7C119.5,63.9,120.2,63.4,120.1,62.9z"/>
	<path class="st8" d="M173.2,63.4c1.9-2.4,3-4.8,4.1-7.7c0.7-2,1.3-5.2-0.3-7c-1.3-1.4-2.5-2.6-3.9-1.4c-0.9,0.7-0.9,12.8-0.9,15.6
		C172.2,63.4,172.9,63.9,173.2,63.4z"/>
	<path class="st7" d="M7.2,69.8c-1.1-1.6-2.5-3-3.8-4.5c-0.3-0.3-0.9-0.1-1,0.3c-0.1,0.4-0.2,0.8-0.2,1.2c-0.6-1.1-1.2-2.1-1.8-3.2
		c-0.2-0.3-0.6-0.1-0.5,0.2c0.5,1.8,1.3,3.4,2.2,5c0.3,0.5,1,0.2,1-0.3c0-0.5,0.1-1,0.1-1.5c0.9,1.2,1.8,2.5,2.9,3.5
		C6.8,71,7.6,70.4,7.2,69.8z"/>
	<path class="st7" d="M311,68.7c-1.7,0.6-3.4,1.4-5,2.1c0.3-0.7,0.6-1.5,0.8-2.2c0.1-0.4-0.4-0.8-0.7-0.5c-1.6,1.1-3.3,2.3-4.8,3.5
		c-0.3,0.3,0.1,0.8,0.5,0.6c1.2-0.8,2.4-1.6,3.6-2.4c-0.2,0.6-0.5,1.2-0.7,1.8c-0.2,0.4,0.4,0.7,0.7,0.5c2-0.9,4.1-1.6,6-2.6
		C311.8,69.3,311.5,68.5,311,68.7z"/>
	<path class="st7" d="M314.7,78.5c-1-0.2-2-0.3-3-0.4c0,0,0,0,0,0c0.4-0.3,0.2-0.8-0.2-0.8c-1.5-0.2-3.1-0.5-4.6-0.6
		c-0.3,0-0.4,0.4-0.1,0.5c1.2,0.3,2.4,0.5,3.6,0.7c0,0-0.1,0-0.1,0.1c-0.3,0.2-0.3,0.8,0.1,0.8c1.4,0.2,2.7,0.5,4.1,0.6
		C315.1,79.5,315.2,78.6,314.7,78.5z"/>
	<path class="st8" d="M150.1,60.3c-0.3-3.1-2.2-14.1-3.6-16.4c-0.2-0.3-0.7-0.5-1.1-0.3c-0.7,0.3-3.6,12.7-3.6,15.8
		c0,2-0.2,4.1,1.5,5.3C146.7,67.2,150.5,64.1,150.1,60.3z"/>
	<path class="st3" d="M290.3,79.8c0-0.2-0.2-0.6-0.5-0.6c-3.8-0.6-7.7-1.2-11.6-1c-0.4,0-0.5,0.6-0.1,0.7c0.1,0,0.1,0,0.2,0
		c0,0.1,0,0.2,0,0.3c0.8,3,5.9,5.9,9.1,4.9c0.5-0.1,1-0.3,1.4-0.6c0.3,0,0.6-0.3,0.6-0.7C289.9,82,290.2,80.9,290.3,79.8z"/>
	<path class="st3" d="M23.2,79.6c-0.5-0.9-1.9-0.7-2.8-0.7c-2.1-0.1-4.3-0.3-6.5-0.2c0,0,0,0,0,0c-0.2-0.1-0.5-0.2-0.8,0
		c0,0-0.1,0.1-0.1,0.1c-0.1,0-0.2,0-0.2,0c-0.3,0-0.5,0.4-0.3,0.6c-0.5,0.9-0.6,2.2-0.6,3c0,0.6,0,1.2,0.4,1.6
		c0.1,0.4,0.3,0.7,0.7,1c1.2,0.8,3.5,0.1,4.8-0.2c1.5-0.4,3-1,4.2-2.1C22.6,82.1,23.8,80.7,23.2,79.6z"/>
	<path class="st7" d="M2.8,81.9c2.2,0.3,4.6,0.7,6.9,0.7c-0.1,0.9,0,1.8,0.3,2.6c-0.1,0.6-0.2,1.2-0.3,1.8c-0.3,1.9,2.5,2.8,3,0.8
		c0-0.2,0.1-0.4,0.1-0.6c0.7,0,1.5-0.1,2.3-0.2c2.2-0.3,4.7-0.3,6.7-1.3c2-0.9,3.1-2.8,3.4-4.8c2.3-0.1,4.6-0.3,6.8-0.5
		c6.4-0.6,12.9-1.4,19.3-2.7c0.1,0.3,0.2,1,0.4,1.2c0.7,1.4,2.8,0.4,2.5-1c-0.3-1.2-0.5-3.1-1.1-4.3c-0.2-0.5-0.3-1.5-0.4-2
		c-0.4-1.5-2.9-1.2-2.7,0.4c0.1,0.8,0.2,2.1,0.4,2.9C42,76.6,33.5,77.5,25,78c-0.2-0.6-0.4-1.2-0.8-1.7c-2.1-3.4-6-4.8-9.8-5.3
		c0-0.3,0-0.7,0-1c0-2-2.8-1.9-3,0c-0.2,1.6-0.4,3.3-0.6,4.9c-2-0.9-4.7-1.1-6.5-0.7c-1.7,0.3-1.1,2.6,0.4,2.8
		c1.2,0.1,2.4,0,3.7,0.3c0.7,0.1,1.4,0.4,2.1,0.5c-0.1,0.6-0.1,1.2-0.2,1.7c0,0.2,0,0.3-0.1,0.5c-2.2-0.5-4.7-0.7-6.9-0.9
		C1.6,78.9,1.2,81.7,2.8,81.9z M13.4,84.2c0.5-3.5,0.8-7.1,0.9-10.6c2.6,0.6,5.2,1.2,6.9,3.3c1,1.2,1.5,2.8,1,4.4
		c-0.5,1.6-2,2.1-3.5,2.3c-1.2,0.2-3.9,1-5.2,0.7C13.5,84.3,13.4,84.3,13.4,84.2z"/>
	<g>
		<path class="st7" d="M251,78.6c0.5,1,2.5,1,2.7-0.3c0-0.3,0.1-0.5,0.1-0.8c0.1-0.1,0.1-0.3,0.2-0.4c5.7,1.1,11.4,1.6,16.5,2.1
			c2,0.2,4,0.3,6.1,0.5c0.5,2.3,2.2,4.2,4.3,5.1c2.9,1.3,6,1,9,0.5c0.4,1,1.1,1.9,2.2,2.4c4.7,2.1,6.6-4.2,7.2-7.4
			c0.7-4,0.7-9.2-3.5-11.3c-0.6-0.3-1.1-0.2-1.5,0c-0.7,0.1-1.4,0.4-2.1,0.9c-0.5,0.4-0.8,0.9-1.1,1.4c-4.4-1.6-12.7,0.4-14.4,5.3
			c-3.3-0.2-6.5-0.5-9.8-0.8c-3.7-0.4-7.7-0.9-11.9-1.7c0.2-0.9,0.2-1.8,0.1-2.7c-0.1-1-1-1.6-1.9-1.4c-0.5,0-1,0.3-1.2,0.7
			c-0.9,2.2-1.4,4.4-1.6,6.8C250.5,77.9,250.7,78.3,251,78.6z M292.8,78.6c0.2-1.6-0.1-6,1.8-6.9c1.7,1.4,2.2,3.3,2.1,5.5
			c0,1-0.2,2.8-0.5,4.4c0-0.1,0-0.3-0.1-0.4c-0.1-0.5-0.5-0.9-0.9-1c-0.5-0.1-0.9,0-1.3,0.3c-0.4,0.4-0.5,1-0.3,1.4
			c0.2,0.4,0.5,0.7,0.9,0.8c0.4,0.2,1,0.1,1.3-0.2c0,0,0.1-0.1,0.1-0.2c-0.3,1-0.7,1.8-1.3,2.2C291.5,86.8,292.7,79.5,292.8,78.6z
			 M279.3,77.9c0.4-2.2,3.1-3.4,5-3.9c2.1-0.6,4-0.5,6.1-0.5c-0.1,0.6-0.2,1.3-0.2,1.9c-0.2,1.8-0.8,4.6-0.8,7.1
			c-2,0.4-4.1,0.6-6.1,0.1C281.1,82.1,278.9,80.4,279.3,77.9z"/>
		<path class="st7" d="M295,74.2c1.6,0,1.6,2.5,0,2.5C293.4,76.7,293.3,74.2,295,74.2z"/>
	</g>
</g>
</svg>
